<?xml version="1.0" encoding="utf-8"?>
<!-- Generator: Adobe Illustrator 22.0.1, SVG Export Plug-In . SVG Version: 6.00 Build 0)  -->
<svg version="1.1" id="Слой_1" xmlns="http://www.w3.org/2000/svg" xmlns:xlink="http://www.w3.org/1999/xlink" x="0px" y="0px"
	 viewBox="0 0 150 150" style="enable-background:new 0 0 150 150;" xml:space="preserve">
<style type="text/css">
	.st0{fill:#FFFFFF;}
</style>
<g>
	<g>
		<g>
			<path class="st0" d="M116.7,54.9c-6.7,0-12.2-5.5-12.2-12.2c0-6.7,5.5-12.2,12.2-12.2c6.7,0,12.2,5.5,12.2,12.2
				C128.9,49.5,123.5,54.9,116.7,54.9z M116.7,32.7c-5.6,0-10.1,4.5-10.1,10.1s4.5,10.1,10.1,10.1c5.6,0,10.1-4.5,10.1-10.1
				S122.3,32.7,116.7,32.7z"/>
		</g>
		<g>
			<g>
				<path class="st0" d="M107.2,32.1c0.3,0.4,0.3,0.9-0.1,1.2l0,0c-0.4,0.3-0.9,0.3-1.2-0.1L99.7,26c-0.3-0.4-0.3-0.9,0.1-1.2l0,0
					c0.4-0.3,0.9-0.3,1.2,0.1L107.2,32.1z"/>
			</g>
		</g>
		<g>
			<g>
				<path class="st0" d="M117.6,28.2c0,0.5-0.4,0.8-0.8,0.9l0,0c-0.5,0-0.8-0.4-0.9-0.8l-0.1-9.6c0-0.5,0.4-0.9,0.8-0.9l0,0
					c0.5,0,0.8,0.4,0.9,0.8L117.6,28.2z"/>
			</g>
		</g>
		<g>
			<g>
				<path class="st0" d="M102.3,40.4c0.5,0,0.8,0.4,0.8,0.9l0,0c0,0.5-0.4,0.8-0.9,0.8l-9.5-0.8c-0.5,0-0.8-0.4-0.8-0.9l0,0
					c0-0.5,0.4-0.8,0.9-0.8L102.3,40.4z"/>
			</g>
		</g>
		<g>
			<g>
				<path class="st0" d="M103.8,49.5c0.4-0.3,0.9-0.1,1.2,0.3l0,0c0.2,0.4,0.1,0.9-0.3,1.2L96.6,56c-0.4,0.3-0.9,0.1-1.2-0.3l0,0
					c-0.3-0.4-0.1-0.9,0.3-1.2L103.8,49.5z"/>
			</g>
		</g>
		<g>
			<g>
				<path class="st0" d="M111,55.8c0.2-0.4,0.7-0.7,1.1-0.5l0,0c0.4,0.2,0.7,0.7,0.5,1.1l-3.4,9c-0.2,0.4-0.7,0.7-1.1,0.5l0,0
					c-0.4-0.2-0.7-0.7-0.5-1.1L111,55.8z"/>
			</g>
		</g>
		<g>
			<g>
				<path class="st0" d="M129.3,51.3c-0.4-0.2-0.6-0.7-0.4-1.1l0,0c0.2-0.4,0.7-0.6,1.1-0.4l8.5,4.5c0.4,0.2,0.6,0.7,0.4,1.1l0,0
					c-0.2,0.4-0.7,0.6-1.1,0.4L129.3,51.3z"/>
			</g>
		</g>
		<g>
			<g>
				<path class="st0" d="M131.3,40.9c-0.5,0.1-0.9-0.3-0.9-0.7l0,0c-0.1-0.5,0.3-0.9,0.7-0.9l9.5-1.1c0.5-0.1,0.9,0.3,0.9,0.7l0,0
					c0.1,0.5-0.3,0.9-0.7,0.9L131.3,40.9z"/>
			</g>
		</g>
		<g>
			<g>
				<path class="st0" d="M125,64.8c0.2,0.4-0.1,0.9-0.5,1.1l0,0c-0.4,0.2-0.9-0.1-1.1-0.5l-3.2-9c-0.2-0.4,0.1-0.9,0.5-1.1l0,0
					c0.4-0.2,0.9,0.1,1.1,0.5L125,64.8z"/>
			</g>
		</g>
		<g>
			<g>
				<path class="st0" d="M126.6,32.3c-0.3,0.4-0.8,0.4-1.2,0.1l0,0c-0.4-0.3-0.4-0.8-0.1-1.2l5.9-7.6c0.3-0.4,0.8-0.4,1.2-0.1l0,0
					c0.4,0.3,0.4,0.8,0.1,1.2L126.6,32.3z"/>
			</g>
		</g>
	</g>
	<g>
		<g>
			<path class="st0" d="M134.9,77.4c0.1-0.7,0.1-1.3,0.1-2c0-12.6-10.2-22.8-22.8-22.8c-4.3,0-8.4,1.2-12,3.4
				c-2.2-13-14.1-22.7-28-21.9c-13.2,0.7-23.7,10.3-25.4,22.8c-2.4-0.8-4.9-1.3-7.4-1.3c-12.6,0-22.8,10.2-22.8,22.8
				c0,0.3,0,0.5,0,0.8c-6.4,1.7-15.5,5.4-15.5,18.4c0,9.7,8,18,19,18.5l114.4-0.5c8.4-2.8,14.8-11.5,14.3-21
				C148.5,86.6,142.8,79.8,134.9,77.4z"/>
		</g>
	</g>
</g>
</svg>
