<?xml version="1.0" encoding="utf-8"?>
<!-- Generator: Adobe Illustrator 22.0.1, SVG Export Plug-In . SVG Version: 6.00 Build 0)  -->
<svg version="1.1" id="Слой_1" xmlns="http://www.w3.org/2000/svg" xmlns:xlink="http://www.w3.org/1999/xlink" x="0px" y="0px"
	 viewBox="0 0 150 150" style="enable-background:new 0 0 150 150;" xml:space="preserve">
<style type="text/css">
	.st0{fill:#FFFFFF;}
</style>
<g>
	<g>
		<g>
			<path class="st0" d="M133.1,51.6c0.1-0.7,0.1-1.3,0.1-1.9c0-12.2-9.9-22.1-22.1-22.1c-4.2,0-8.2,1.2-11.6,3.3
				c-2.1-12.6-13.7-22-27.2-21.3c-12.9,0.6-23,10-24.7,22.1c-2.3-0.8-4.7-1.2-7.2-1.2c-12.2,0-22.1,9.9-22.1,22.1c0,0.3,0,0.5,0,0.8
				c-6.2,1.7-15.1,5.3-15,17.9c0,9.4,7.8,17.5,18.4,18l111.2-0.5c8.2-2.7,14.4-11.2,13.9-20.4C146.3,60.5,140.9,53.9,133.1,51.6z"/>
		</g>
	</g>
	<g>
		<g>
			<path class="st0" d="M49.3,109.3L49.3,109.3c-8.5-11.4-8-31.2-8.4-24.8c-1.1,16.5-7.6,24.8-7.6,24.8l0,0c-0.5,1-0.9,2.2-0.9,3.4
				c0,4.4,4,7.9,8.8,7.9c4.9,0,8.8-3.5,8.8-7.9C50.1,111.4,49.8,110.3,49.3,109.3z"/>
		</g>
	</g>
	<g>
		<g>
			<path class="st0" d="M76.4,93.7L76.4,93.7c-7.5-10-7-27.2-7.3-21.7c-0.9,14.4-6.6,21.7-6.6,21.7l0,0c-0.5,0.9-0.7,1.9-0.7,2.9
				c0,3.8,3.4,6.9,7.7,6.9c4.2,0,7.7-3.1,7.7-6.9C77.2,95.6,76.9,94.6,76.4,93.7z"/>
		</g>
	</g>
	<g>
		<g>
			<path class="st0" d="M68.7,130.8L68.7,130.8c-5.8-7.8-5.4-21.1-5.7-16.9c-0.7,11.2-5.1,16.9-5.1,16.9l0,0
				c-0.4,0.7-0.6,1.5-0.6,2.3c0,3,2.7,5.4,6,5.4c3.3,0,6-2.4,6-5.4C69.3,132.3,69.1,131.5,68.7,130.8z"/>
		</g>
	</g>
	<g>
		<g>
			<path class="st0" d="M54.1,74.7L54.1,74.7c-4.3-5.8-4-15.7-4.2-12.5c-0.5,8.3-3.8,12.5-3.8,12.5l0,0c-0.3,0.5-0.4,1.1-0.4,1.7
				c0,2.2,2,4,4.4,4c2.4,0,4.4-1.8,4.4-4C54.6,75.8,54.4,75.2,54.1,74.7z"/>
		</g>
	</g>
	<g>
		<g>
			<path class="st0" d="M99.9,83.2c0,3.2-2.6,5.8-5.8,5.8c-3.2,0-5.8-2.6-5.8-5.8c0-3.2,2.6-5.8,5.8-5.8
				C97.3,77.4,99.9,80,99.9,83.2z"/>
		</g>
	</g>
	<g>
		<g>
			<path class="st0" d="M125,100.9c0,3.2-2.6,5.8-5.8,5.8c-3.2,0-5.8-2.6-5.8-5.8c0-3.2,2.6-5.8,5.8-5.8
				C122.4,95.1,125,97.7,125,100.9z"/>
		</g>
	</g>
	<g>
		<g>
			<path class="st0" d="M103.3,138.5c0,3.2-2.6,5.8-5.8,5.8c-3.2,0-5.8-2.6-5.8-5.8c0-3.2,2.6-5.8,5.8-5.8
				C100.7,132.7,103.3,135.3,103.3,138.5z"/>
		</g>
	</g>
	<g>
		<g>
			<path class="st0" d="M121.8,80.9c0,2.3-1.9,4.2-4.2,4.2c-2.3,0-4.2-1.9-4.2-4.2c0-2.3,1.9-4.2,4.2-4.2
				C119.9,76.8,121.8,78.6,121.8,80.9z"/>
		</g>
	</g>
	<g>
		<g>
			<path class="st0" d="M104,108.9c0,2.9-2.4,5.3-5.3,5.3c-2.9,0-5.3-2.4-5.3-5.3c0-2.9,2.4-5.3,5.3-5.3
				C101.6,103.6,104,106,104,108.9z"/>
		</g>
	</g>
	<g>
		<g>
			<path class="st0" d="M124.5,125.8c0,2.9-2.4,5.3-5.3,5.3c-2.9,0-5.3-2.4-5.3-5.3c0-2.9,2.4-5.3,5.3-5.3
				C122.1,120.5,124.5,122.9,124.5,125.8z"/>
		</g>
	</g>
</g>
</svg>
