<?xml version="1.0" encoding="utf-8"?>
<!-- Generator: Adobe Illustrator 22.0.1, SVG Export Plug-In . SVG Version: 6.00 Build 0)  -->
<svg version="1.1" id="Слой_1" xmlns="http://www.w3.org/2000/svg" xmlns:xlink="http://www.w3.org/1999/xlink" x="0px" y="0px"
	 viewBox="0 0 150 150" style="enable-background:new 0 0 150 150;" xml:space="preserve">
<style type="text/css">
	.st0{fill:#FFFFFF;}
</style>
<g>
	<g>
		<path class="st0" d="M144.1,67.8c-0.4-7.4-5.5-13.6-12.9-15.8c0.1-0.6,0.1-1.2,0.1-1.8c0-11.5-9.4-20.9-20.9-20.9
			c-4,0-7.7,1.1-11,3.1c-2-11.9-13-20.8-25.7-20.1c-12.2,0.6-21.8,9.5-23.4,20.9c-2.2-0.8-4.5-1.2-6.8-1.2
			C32,32,22.6,41.4,22.6,52.9c0,0.3,0,0.5,0,0.8c-5.8,1.6-14.2,5-14.2,16.9c0,8.9,7.4,16.5,17.5,17l0.1-0.2c1.1,0.3,2.2,0.4,3.4,0.5
			l9.4,0l0.8,0.8l-2,0.4l1.2,1.4h-2.7l-1.7-1.7l0.8,2.1l-0.8,2.1l1.7-1.8h2.7l-1.2,1.6l2,0.3l-1.9,1.9h-2.4l2.2,0.8l0.7,2.1l0-2.3
			l1.8-1.8l0.3,1.9l1.6-1.2v2.7l-1.7,1.7l2.1-0.9l2,0.9l-1.7-1.7v-2.7l1.6,1.1l0.3-1.8l1.9,1.9l0,2.3l0.7-2.1l2.2-0.8h-2.3l-1.9-1.8
			l1.8-0.5L46,91.2h2.7l1.7,1.8l-0.9-2.2l0.9-2l-1.7,1.7H46l1-1.5l-1.7-0.3l0.8-0.8l19.3-0.1l0.6,0.2l0.5,1.3l0-1.5l0.1-0.1l1.3,0
			l0,0.1l0.2-0.1l0.8,0v1.1l-1.1,1l1.3-0.6l1.3,0.6l-1-1v-1.1l0.9,0l0.1,0.1l0-0.1l1.3,0l0.1,0.1l0,1.5l0.4-1.3l0.8-0.3l20.5-0.1
			c0.3,0.1,0.6,0.1,1,0.1l0.2,0.1l0.9,2.7l0-2.9l4.8,0v2l-2.2,2.1l2.7-1.2l2.6,1.2l-2.1-2.1v-2l4.8,0l0.1,3l0.9-2.7l0.8-0.3
			l21.3-0.1c0.5-0.2,1-0.4,1.5-0.6l0.1,0.3C138.7,84.5,144.6,76.5,144.1,67.8z M44.5,89.4l0.4,1.1h-1.6L44.5,89.4z M42.9,89.9v-1.5
			l1.1,0.5L42.9,89.9z M40.3,87.8l0,0.3L40,87.8L40.3,87.8z M40.4,89.4l1.2,1.1H40L40.4,89.4z M40.5,92.3L40,91.2h1.5L40.5,92.3z
			 M42.1,93.3l-1-0.4l1-1.1V93.3z M42.1,89.9l-1-1.1l1-0.5V89.9z M42.9,93.3v-1.6l1.1,1.1L42.9,93.3z M44.4,92.3l-1.1-1.2H45
			L44.4,92.3z M44.7,88.1l0-0.3l0.3,0L44.7,88.1z"/>
	</g>
	<g>
		<polygon class="st0" points="41.5,99.2 42.4,100.2 43.4,99.2 42.4,98.2 		"/>
	</g>
	<g>
		<rect x="36" y="95.9" class="st0" width="1.4" height="1.4"/>
	</g>
	<g>
		<polygon class="st0" points="34,89.8 33,90.8 34,91.8 35,90.8 		"/>
	</g>
	<g>
		<polygon class="st0" points="50.8,89.8 49.8,90.8 50.8,91.8 51.8,90.8 		"/>
	</g>
	<g>
		<rect x="47.5" y="95.9" class="st0" width="1.4" height="1.4"/>
	</g>
	<g>
		<rect x="107.6" y="88" class="st0" width="1.8" height="1.8"/>
	</g>
	<g>
		<rect x="92.5" y="88" class="st0" width="1.8" height="1.8"/>
	</g>
	<g>
		<polygon class="st0" points="102.2,92.3 100.9,91 99.7,92.3 100.9,93.5 		"/>
	</g>
	<g>
		<path class="st0" d="M67.4,131.2l-1.2-2.8l1.2-2.6l-2.1,2.2h-3.5l1.3-2l-2.2-0.4l2.5-2.5h3l-2.8-1l-1-2.8v3.1L60,125l-0.4-2.4
			l-2,1.4v-3.4l2.2-2.3l-2.6,1.3l-2.7-1.2l2.2,2.2v3.4l-2-1.2l-0.3,2.3l-2.5-2.5v-3.1l-1,2.8l-2.9,1.1h3.1l2.5,2.4l-2.5,0.6l1.6,1.8
			h-3.5l-2.2-2.2l1.1,2.7l-1.1,2.7l2.2-2.3h3.5l-1.6,2l2.5,0.4l-2.5,2.5H48l2.9,1l0.9,2.7l0-3l2.4-2.4l0.4,2.5l2-1.5v3.5l-2.2,2.1
			l2.7-1.2l2.6,1.2l-2.1-2.1v-3.5l2,1.4l0.4-2.4l2.5,2.5l0.1,3l0.9-2.7l2.8-1.1h-3l-2.5-2.4l2.4-0.7l-1.4-1.8h3.5L67.4,131.2z
			 M54.5,126.6L56,128h-2L54.5,126.6z M54.6,130.5l-0.6-1.5h2L54.6,130.5z M56.7,131.7l-1.4-0.6l1.4-1.5V131.7z M56.7,127.3
			l-1.4-1.4l1.4-0.6V127.3z M59.8,126.6l0.5,1.4h-2L59.8,126.6z M57.7,125.3l1.4,0.6l-1.4,1.4V125.3z M57.7,131.8v-2.1l1.4,1.4
			L57.7,131.8z M59.7,130.5l-1.4-1.5h2.1L59.7,130.5z"/>
	</g>
	<g>
		<rect x="48.6" y="119.9" class="st0" width="1.8" height="1.8"/>
	</g>
	<g>
		<rect x="63.9" y="119.9" class="st0" width="1.8" height="1.8"/>
	</g>
	<g>
		<polygon class="st0" points="46.1,127.2 44.8,128.5 46.1,129.8 47.4,128.5 		"/>
	</g>
	<g>
		<rect x="48.7" y="135.2" class="st0" width="1.8" height="1.8"/>
	</g>
	<g>
		<polygon class="st0" points="55.8,139.4 57.1,140.7 58.4,139.4 57.1,138.1 		"/>
	</g>
	<g>
		<rect x="63.7" y="135.2" class="st0" width="1.8" height="1.8"/>
	</g>
	<g>
		<polygon class="st0" points="57.1,116.2 55.8,117.5 57.1,118.7 58.4,117.5 		"/>
	</g>
	<g>
		<polygon class="st0" points="66.7,128.5 68,129.8 69.2,128.5 68,127.2 		"/>
	</g>
	<g>
		<rect x="77.4" y="101.8" class="st0" width="1.3" height="1.3"/>
	</g>
	<g>
		<path class="st0" d="M90.5,109.6l-0.8-1.9l0.8-1.8l-1.5,1.5h-2.4l0.9-1.4l-1.6-0.3l1.7-1.7h2.1l-1.9-0.7l-0.7-1.9v2.1l-1.7,1.7
			l-0.3-1.7l-1.4,0.9v-2.4l1.5-1.6l-1.8,0.9l-1.9-0.8l1.5,1.5v2.4l-1.4-0.9l-0.2,1.6l-1.7-1.7v-2.1l-0.7,1.9l-2,0.8h2.1l1.7,1.7
			l-1.8,0.4l1.1,1.3h-2.4l-1.5-1.5l0.7,1.9l-0.7,1.9l1.5-1.6h2.4l-1.1,1.4l1.8,0.3l-1.7,1.7H77l2,0.7l0.6,1.9l0-2.1l1.6-1.6l0.3,1.7
			l1.4-1.1v2.4l-1.5,1.5l1.9-0.8l1.8,0.8l-1.5-1.5v-2.4l1.4,1l0.3-1.7l1.7,1.7l0,2.1l0.6-1.9l2-0.7h-2.1l-1.7-1.6l1.7-0.5l-1-1.3H89
			L90.5,109.6z M81.5,106.4l1,1h-1.4L81.5,106.4z M81.6,109.1l-0.4-1h1.4L81.6,109.1z M83,110l-0.9-0.4l0.9-1V110z M83,106.9l-0.9-1
			l0.9-0.4V106.9z M85.2,106.4l0.4,1h-1.4L85.2,106.4z M83.8,105.5l1,0.4l-1,1V105.5z M83.8,110v-1.5l1,1L83.8,110z M85.2,109.1
			l-1-1h1.5L85.2,109.1z"/>
	</g>
	<g>
		<rect x="88" y="112.3" class="st0" width="1.3" height="1.3"/>
	</g>
	<g>
		
			<rect x="82.7" y="99.4" transform="matrix(0.7071 -0.7071 0.7071 0.7071 -46.345 88.2197)" class="st0" width="1.3" height="1.3"/>
	</g>
	<g>
		<polygon class="st0" points="90,107.7 90.9,108.6 91.8,107.7 90.9,106.8 		"/>
	</g>
	<g>
		<rect x="88" y="101.8" class="st0" width="1.3" height="1.3"/>
	</g>
	<g>
		<polygon class="st0" points="82.5,115.3 83.4,116.2 84.3,115.3 83.4,114.4 		"/>
	</g>
	<g>
		<rect x="77.5" y="112.3" class="st0" width="1.3" height="1.3"/>
	</g>
	<g>
		<polygon class="st0" points="75.7,106.8 74.8,107.8 75.7,108.6 76.6,107.8 		"/>
	</g>
	<g>
		<polygon class="st0" points="68.5,90.1 69.1,90.7 69.7,90.1 69.1,89.5 		"/>
	</g>
	<g>
		<rect x="72.3" y="88" class="st0" width="0.9" height="0.9"/>
	</g>
	<g>
		<rect x="65" y="88" class="st0" width="0.9" height="0.9"/>
	</g>
	<g>
		<path class="st0" d="M113.5,112.1l-0.7-1.6l0.7-1.5l-1.2,1.2h-2l0.7-1.1l-1.3-0.2l1.4-1.4h1.7l-1.6-0.6l-0.6-1.5v1.7l-1.3,1.4
			l-0.2-1.3L108,108v-1.9l1.2-1.3l-1.5,0.7l-1.5-0.7l1.2,1.2v1.9l-1.1-0.7l-0.2,1.3l-1.4-1.4v-1.7l-0.5,1.5l-1.6,0.6h1.7l1.4,1.4
			l-1.4,0.3l0.9,1h-1.9l-1.2-1.2l0.6,1.5l-0.6,1.5l1.2-1.3h1.9l-0.9,1.1l1.4,0.2l-1.4,1.4h-1.7l1.6,0.6l0.5,1.5l0-1.7l1.3-1.3
			l0.2,1.4l1.1-0.9v2l-1.2,1.2l1.5-0.7l1.5,0.7l-1.2-1.2v-2l1.1,0.8l0.2-1.3l1.4,1.4l0,1.7l0.5-1.5l1.6-0.6h-1.7l-1.4-1.3l1.3-0.4
			l-0.8-1h2L113.5,112.1z M106.3,109.5l0.8,0.8H106L106.3,109.5z M106.3,111.7l-0.3-0.8h1.1L106.3,111.7z M107.5,112.4l-0.8-0.3
			l0.8-0.8V112.4z M107.5,109.9l-0.8-0.8l0.8-0.3V109.9z M109.2,109.5l0.3,0.8h-1.1L109.2,109.5z M108.1,108.8l0.8,0.3l-0.8,0.8
			V108.8z M108.1,112.4v-1.2l0.8,0.8L108.1,112.4z M109.2,111.7l-0.8-0.8h1.2L109.2,111.7z"/>
	</g>
	<g>
		<polygon class="st0" points="101.6,109.9 100.9,110.6 101.6,111.3 102.3,110.6 		"/>
	</g>
	<g>
		<rect x="111.4" y="114.3" class="st0" width="1" height="1"/>
	</g>
	<g>
		<polygon class="st0" points="107,116.7 107.7,117.4 108.4,116.7 107.7,115.9 		"/>
	</g>
	<g>
		<rect x="103" y="114.3" class="st0" width="1" height="1"/>
	</g>
	<g>
		<rect x="111.5" y="105.8" class="st0" width="1" height="1"/>
	</g>
	<g>
		<polygon class="st0" points="113,110.6 113.8,111.3 114.5,110.6 113.8,109.8 		"/>
	</g>
	<g>
		<rect x="103" y="105.8" class="st0" width="1" height="1"/>
	</g>
	<g>
		<polygon class="st0" points="107.7,105.1 108.4,104.4 107.7,103.7 107,104.4 		"/>
	</g>
</g>
</svg>
