<?xml version="1.0" encoding="utf-8"?>
<!-- Generator: Adobe Illustrator 22.0.1, SVG Export Plug-In . SVG Version: 6.00 Build 0)  -->
<svg version="1.1" id="Слой_1" xmlns="http://www.w3.org/2000/svg" xmlns:xlink="http://www.w3.org/1999/xlink" x="0px" y="0px"
	 viewBox="0 0 150 150" style="enable-background:new 0 0 150 150;" xml:space="preserve">
<style type="text/css">
	.st0{fill:#FFFFFF;}
</style>
<g>
	<g>
		<path class="st0" d="M75.3,113.7c-20,0-36.3-16.3-36.3-36.3c0-20,16.3-36.3,36.3-36.3c20,0,36.3,16.3,36.3,36.3
			C111.5,97.5,95.3,113.7,75.3,113.7z M75.3,47.5c-16.5,0-29.9,13.4-29.9,29.9s13.4,29.9,29.9,29.9c16.5,0,29.9-13.4,29.9-29.9
			S91.8,47.5,75.3,47.5z"/>
	</g>
	<g>
		<g>
			<path class="st0" d="M47,45.9c0.9,1.1,0.8,2.6-0.2,3.6l0,0c-1.1,0.9-2.6,0.8-3.6-0.2L24.5,27.8c-0.9-1.1-0.8-2.6,0.2-3.6l0,0
				c1-0.9,2.6-0.8,3.6,0.2L47,45.9z"/>
		</g>
	</g>
	<g>
		<g>
			<path class="st0" d="M77.9,34.3c0,1.4-1.1,2.5-2.5,2.5l0,0c-1.4,0-2.5-1.1-2.5-2.5L72.6,5.9c0-1.4,1.1-2.5,2.5-2.5l0,0
				c1.4,0,2.5,1.1,2.5,2.5L77.9,34.3z"/>
		</g>
	</g>
	<g>
		<g>
			<path class="st0" d="M32.2,70.5c1.4,0.1,2.4,1.3,2.3,2.7l0,0c-0.1,1.4-1.3,2.4-2.7,2.3L3.4,73.3C2,73.1,1,71.9,1.1,70.5l0,0
				c0.1-1.4,1.3-2.4,2.7-2.3L32.2,70.5z"/>
		</g>
	</g>
	<g>
		<g>
			<path class="st0" d="M36.8,97.5c1.2-0.7,2.7-0.4,3.5,0.8l0,0c0.7,1.2,0.4,2.7-0.8,3.5L15.4,117c-1.2,0.7-2.7,0.4-3.5-0.8l0,0
				c-0.7-1.2-0.4-2.7,0.8-3.5L36.8,97.5z"/>
		</g>
	</g>
	<g>
		<g>
			<path class="st0" d="M58.3,116.3c0.5-1.3,1.9-2,3.2-1.5l0,0c1.3,0.5,2,1.9,1.5,3.3l-10,26.6c-0.5,1.3-1.9,2-3.2,1.5l0,0
				c-1.3-0.5-2-1.9-1.5-3.2L58.3,116.3z"/>
		</g>
	</g>
	<g>
		<g>
			<path class="st0" d="M112.6,102.8c-1.2-0.6-1.7-2.2-1.1-3.4l0,0c0.6-1.2,2.2-1.7,3.4-1.1l25.2,13.2c1.2,0.7,1.7,2.2,1.1,3.4l0,0
				c-0.6,1.2-2.2,1.7-3.4,1.1L112.6,102.8z"/>
		</g>
	</g>
	<g>
		<g>
			<path class="st0" d="M118.4,72.1c-1.4,0.2-2.6-0.8-2.8-2.2l0,0c-0.2-1.4,0.8-2.6,2.2-2.8l28.3-3.3c1.4-0.2,2.6,0.8,2.8,2.2l0,0
				c0.2,1.4-0.8,2.6-2.2,2.8L118.4,72.1z"/>
		</g>
	</g>
	<g>
		<g>
			<path class="st0" d="M99.8,143.1c0.5,1.3-0.2,2.8-1.5,3.2l0,0c-1.3,0.5-2.7-0.2-3.2-1.5l-9.5-26.9c-0.5-1.3,0.2-2.8,1.5-3.2l0,0
				c1.3-0.5,2.8,0.2,3.2,1.5L99.8,143.1z"/>
		</g>
	</g>
	<g>
		<g>
			<path class="st0" d="M104.5,46.6c-0.9,1.1-2.4,1.3-3.5,0.4l0,0c-1.1-0.9-1.3-2.4-0.4-3.5L118.1,21c0.9-1.1,2.4-1.3,3.5-0.4l0,0
				c1.1,0.9,1.3,2.4,0.4,3.5L104.5,46.6z"/>
		</g>
	</g>
</g>
</svg>
