<?xml version="1.0" encoding="utf-8"?>
<!-- Generator: Adobe Illustrator 22.0.1, SVG Export Plug-In . SVG Version: 6.00 Build 0)  -->
<svg version="1.1" id="Слой_1" xmlns="http://www.w3.org/2000/svg" xmlns:xlink="http://www.w3.org/1999/xlink" x="0px" y="0px"
	 viewBox="0 0 618.9 278.9" style="enable-background:new 0 0 618.9 278.9;" xml:space="preserve">
<style type="text/css">
	.st0{fill:#FFFFFF;}
	.st1{fill:#1C0F00;}
</style>
<path class="st0" d="M115.1,35.5H16.9c-6.1,0-11,4.9-11,11v120.1c0,6.1,4.9,11,11,11h98.2c6.1,0,11-4.9,11-11V46.5
	C126.1,40.4,121.1,35.5,115.1,35.5z"/>
<g>
	<path class="st1" d="M8.6,157.4l13.2-9.5l29.8-74.7l-7.8-12.8L76,54.7l39.4,93.6l8.6,9.2H70.2l13.1-9.2l-10.9-26.2H36.2L26,147.7
		l14.9,9.7H8.6z M37.4,119h33.8L54.5,79.1H53L37.4,119z"/>
	<path class="st0" d="M145.7,138.8v-35.5l-7.3-5.4L173,84.5v53.8c0,5.4,2.7,8.8,6.6,8.8c2.6,0,6.5-1.2,10.7-3.4v-40.4l-7.3-5.4
		l34.6-13.4v57.3l7.7,5.3l-35,12v-13.5c-7.6,5.3-19.6,13.5-25.5,13.5C153.1,159.1,145.7,150.7,145.7,138.8z"/>
	<path class="st0" d="M235.9,138.3l2-38.1l-12-6.6l10-8.8v-9.3l27.7-11.2v24.3H283v7h-19.4v41.7c0,6.1,4.5,10,11.1,10
		c4.6,0,9.9-2.7,13.6-7c-5.4,10-18.1,18.8-30.3,18.8C244,159.1,235.2,151,235.9,138.3z"/>
	<path class="st0" d="M291.3,138.8v-35.5l-7.3-5.4l34.6-13.4v53.8c0,5.4,2.7,8.8,6.6,8.8c2.6,0,6.5-1.2,10.7-3.4v-40.4l-7.3-5.4
		l34.6-13.4v57.3l7.7,5.3l-35,12v-13.5c-7.6,5.3-19.6,13.5-25.5,13.5C298.7,159.1,291.3,150.7,291.3,138.8z"/>
	<path class="st0" d="M379.9,150.7v-47.4l-7.3-5.4l34.7-13.4v12.3c10.9-7.6,20-12.3,23.8-12.3c8.9,0,15.8,5.1,18.4,13.1
		c11.3-8.1,20.9-13.1,24.9-13.1c11.5,0,19.4,8.4,19.4,20.5v45.6l5.4,6.8h-38.8l5.9-6.8v-44.6c0-5.4-3-9.3-7.2-9.3
		c-2.6,0-5.9,1.1-9.2,2.7c0.4,1.8,0.5,3.6,0.5,5.5v45.6l5.4,6.8h-38.8l5.9-6.8v-44.6c0-5.4-3-9.3-7.2-9.3c-2.3,0-5.4,0.9-8.6,2.4
		v51.5l5.9,6.8h-38.8L379.9,150.7z"/>
	<path class="st0" d="M509.1,150.7v-47.4l-7.3-5.4l34.7-13.4v13.4c11.6-8.2,21.3-13.4,25.3-13.4c11.5,0,19.4,8.4,19.4,20.5v45.6
		l5.4,6.8h-38.8l5.9-6.8v-44.4c0-5.5-3-9.5-7.2-9.5c-2.8,0-6.6,1.4-10.1,3.4v50.5l5.9,6.8h-38.8L509.1,150.7z"/>
	<path class="st0" d="M63.9,210.2c0,14.6-11.8,26.4-26.4,26.4c-14.6,0-26.4-11.8-26.4-26.4s11.8-26.4,26.4-26.4
		C52.1,183.9,63.9,195.7,63.9,210.2z M51.3,210.2c0-7.6-6.2-13.8-13.8-13.8c-7.7,0-13.8,6.2-13.8,13.8c0,7.7,6.1,13.8,13.8,13.8
		C45.1,224,51.3,217.9,51.3,210.2z"/>
	<path class="st0" d="M72.1,183.9H82c1.3,0,2.6,0.6,3.5,1.6l27.7,32.1v-33.7h7.9c2.6,0,4.6,2,4.6,4.6v48.2h-12.7l-28.4-33v33H72.1
		V183.9z"/>
	<path class="st0" d="M158.7,183.9h8c2.6,0,4.6,2,4.6,4.6v10l14.6-14.6h17.4l-26.5,26.5l26.3,26.3h-17.4l-14.3-14.3v14.3h-12.6
		V183.9z"/>
	<path class="st0" d="M257.7,210.2c0,14.6-11.8,26.4-26.4,26.4c-14.6,0-26.4-11.8-26.4-26.4s11.8-26.4,26.4-26.4
		C245.9,183.9,257.7,195.7,257.7,210.2z M245.1,210.2c0-7.6-6.2-13.8-13.8-13.8c-7.7,0-13.8,6.2-13.8,13.8c0,7.7,6.1,13.8,13.8,13.8
		C238.9,224,245.1,217.9,245.1,210.2z"/>
	<path class="st0" d="M266,183.9h12.4c14.7,0,26.2,11.9,26.2,26.6c0,14.3-11.5,26.2-26.2,26.2H266V183.9z M292.2,210.4
		c0-7.8-6-13.7-13.8-13.7v27.5C286.2,224.2,292.2,217.8,292.2,210.4z"/>
	<path class="st0" d="M327.8,186.8L327.8,186.8c0.7-1.7,2.4-2.9,4.3-2.9c1.9,0,3.5,1.1,4.2,2.7l23.4,50l-0.1,0.1h-12.9l-5.1-10.9
		h-18.8l-5.1,10.9h-13.1L327.8,186.8z M336,213.9l-3.8-8.4l-3.9,8.4H336z"/>
	<path class="st0" d="M366.3,183.9h8c2.6,0,4.6,2,4.6,4.6v10l14.6-14.6h17.4l-26.5,26.5l26.3,26.3h-17.4l-14.3-14.3v14.3h-12.6
		V183.9z"/>
	<path class="st0" d="M443.9,183.9h26.8c2.6,0,4.6,2,4.6,4.6v7.9h-18.9v7.6h18.9v12.5h-18.9v20.1h-12.5V183.9z"/>
	<path class="st0" d="M485.2,183.9h8c2.5,0,4.6,2,4.6,4.6v48.2h-12.6V183.9z"/>
	<path class="st0" d="M507.7,183.9h8c2.6,0,4.6,2,4.6,4.6V224h18.3v12.6h-31V183.9z"/>
	<path class="st0" d="M546.9,183.9h11.3c0.5,0,0.9,0.2,1.3,0.6l14.3,16.6l14.3-16.6c0.3-0.4,0.8-0.6,1.3-0.6h11.2v52.8h-12.5v-33
		l-5.9,7l-4.8,5.5c-1.8,2.1-5.1,2.1-7,0l-10.8-12.5v33h-12.5V183.9z"/>
</g>
<path class="st0" d="M86.6,21.5H45.3c-3.9,0-7,3.1-7,7v9.2c0,3.9,3.1,7,7,7h41.3c3.9,0,7-3.1,7-7v-9.2
	C93.6,24.6,90.5,21.5,86.6,21.5z"/>
<rect x="97.4" y="47.3" class="st0" width="507.8" height="13.1"/>
<rect x="97.4" y="162.9" class="st0" width="507.8" height="13.1"/>
<g>
	<g>
		<path class="st1" d="M597.6,58.3h-2.7c-1.1,0-2-0.9-2-2v-5.2c0-1.1,0.9-2,2-2h2.7c1.1,0,2,0.9,2,2v5.2
			C599.6,57.4,598.7,58.3,597.6,58.3z"/>
	</g>
	<g>
		<path class="st1" d="M568.6,58.3h-2.7c-1.1,0-2-0.9-2-2v-5.2c0-1.1,0.9-2,2-2h2.7c1.1,0,2,0.9,2,2v5.2
			C570.6,57.4,569.7,58.3,568.6,58.3z"/>
	</g>
	<g>
		<path class="st1" d="M539.6,58.3h-2.7c-1.1,0-2-0.9-2-2v-5.2c0-1.1,0.9-2,2-2h2.7c1.1,0,2,0.9,2,2v5.2
			C541.6,57.4,540.7,58.3,539.6,58.3z"/>
	</g>
	<g>
		<path class="st1" d="M510.6,58.3h-2.7c-1.1,0-2-0.9-2-2v-5.2c0-1.1,0.9-2,2-2h2.7c1.1,0,2,0.9,2,2v5.2
			C512.6,57.4,511.7,58.3,510.6,58.3z"/>
	</g>
	<g>
		<path class="st1" d="M481.6,58.3h-2.7c-1.1,0-2-0.9-2-2v-5.2c0-1.1,0.9-2,2-2h2.7c1.1,0,2,0.9,2,2v5.2
			C483.6,57.4,482.7,58.3,481.6,58.3z"/>
	</g>
	<g>
		<path class="st1" d="M452.6,58.3h-2.7c-1.1,0-2-0.9-2-2v-5.2c0-1.1,0.9-2,2-2h2.7c1.1,0,2,0.9,2,2v5.2
			C454.6,57.4,453.7,58.3,452.6,58.3z"/>
	</g>
	<g>
		<path class="st1" d="M423.6,58.3h-2.7c-1.1,0-2-0.9-2-2v-5.2c0-1.1,0.9-2,2-2h2.7c1.1,0,2,0.9,2,2v5.2
			C425.6,57.4,424.7,58.3,423.6,58.3z"/>
	</g>
	<g>
		<path class="st1" d="M394.6,58.3h-2.7c-1.1,0-2-0.9-2-2v-5.2c0-1.1,0.9-2,2-2h2.7c1.1,0,2,0.9,2,2v5.2
			C396.6,57.4,395.7,58.3,394.6,58.3z"/>
	</g>
	<g>
		<path class="st1" d="M365.6,58.3h-2.7c-1.1,0-2-0.9-2-2v-5.2c0-1.1,0.9-2,2-2h2.7c1.1,0,2,0.9,2,2v5.2
			C367.6,57.4,366.7,58.3,365.6,58.3z"/>
	</g>
	<g>
		<path class="st1" d="M336.6,58.3h-2.7c-1.1,0-2-0.9-2-2v-5.2c0-1.1,0.9-2,2-2h2.7c1.1,0,2,0.9,2,2v5.2
			C338.6,57.4,337.7,58.3,336.6,58.3z"/>
	</g>
	<g>
		<path class="st1" d="M307.6,58.3h-2.7c-1.1,0-2-0.9-2-2v-5.2c0-1.1,0.9-2,2-2h2.7c1.1,0,2,0.9,2,2v5.2
			C309.6,57.4,308.7,58.3,307.6,58.3z"/>
	</g>
	<g>
		<path class="st1" d="M278.6,58.3h-2.7c-1.1,0-2-0.9-2-2v-5.2c0-1.1,0.9-2,2-2h2.7c1.1,0,2,0.9,2,2v5.2
			C280.6,57.4,279.7,58.3,278.6,58.3z"/>
	</g>
	<g>
		<path class="st1" d="M249.6,58.3h-2.7c-1.1,0-2-0.9-2-2v-5.2c0-1.1,0.9-2,2-2h2.7c1.1,0,2,0.9,2,2v5.2
			C251.6,57.4,250.7,58.3,249.6,58.3z"/>
	</g>
	<g>
		<path class="st1" d="M220.6,58.3h-2.7c-1.1,0-2-0.9-2-2v-5.2c0-1.1,0.9-2,2-2h2.7c1.1,0,2,0.9,2,2v5.2
			C222.6,57.4,221.7,58.3,220.6,58.3z"/>
	</g>
	<g>
		<path class="st1" d="M191.6,58.3h-2.7c-1.1,0-2-0.9-2-2v-5.2c0-1.1,0.9-2,2-2h2.7c1.1,0,2,0.9,2,2v5.2
			C193.6,57.4,192.7,58.3,191.6,58.3z"/>
	</g>
	<g>
		<path class="st1" d="M162.6,58.3h-2.7c-1.1,0-2-0.9-2-2v-5.2c0-1.1,0.9-2,2-2h2.7c1.1,0,2,0.9,2,2v5.2
			C164.6,57.4,163.7,58.3,162.6,58.3z"/>
	</g>
	<g>
		<path class="st1" d="M133.6,58.3h-2.7c-1.1,0-2-0.9-2-2v-5.2c0-1.1,0.9-2,2-2h2.7c1.1,0,2,0.9,2,2v5.2
			C135.6,57.4,134.7,58.3,133.6,58.3z"/>
	</g>
</g>
<g>
	<g>
		<path class="st1" d="M597.6,174h-2.7c-1.1,0-2-0.9-2-2v-5.2c0-1.1,0.9-2,2-2h2.7c1.1,0,2,0.9,2,2v5.2
			C599.6,173.1,598.7,174,597.6,174z"/>
	</g>
	<g>
		<path class="st1" d="M568.6,174h-2.7c-1.1,0-2-0.9-2-2v-5.2c0-1.1,0.9-2,2-2h2.7c1.1,0,2,0.9,2,2v5.2
			C570.6,173.1,569.7,174,568.6,174z"/>
	</g>
	<g>
		<path class="st1" d="M539.6,174h-2.7c-1.1,0-2-0.9-2-2v-5.2c0-1.1,0.9-2,2-2h2.7c1.1,0,2,0.9,2,2v5.2
			C541.6,173.1,540.7,174,539.6,174z"/>
	</g>
	<g>
		<path class="st1" d="M510.6,174h-2.7c-1.1,0-2-0.9-2-2v-5.2c0-1.1,0.9-2,2-2h2.7c1.1,0,2,0.9,2,2v5.2
			C512.6,173.1,511.7,174,510.6,174z"/>
	</g>
	<g>
		<path class="st1" d="M481.6,174h-2.7c-1.1,0-2-0.9-2-2v-5.2c0-1.1,0.9-2,2-2h2.7c1.1,0,2,0.9,2,2v5.2
			C483.6,173.1,482.7,174,481.6,174z"/>
	</g>
	<g>
		<path class="st1" d="M452.6,174h-2.7c-1.1,0-2-0.9-2-2v-5.2c0-1.1,0.9-2,2-2h2.7c1.1,0,2,0.9,2,2v5.2
			C454.6,173.1,453.7,174,452.6,174z"/>
	</g>
	<g>
		<path class="st1" d="M423.6,174h-2.7c-1.1,0-2-0.9-2-2v-5.2c0-1.1,0.9-2,2-2h2.7c1.1,0,2,0.9,2,2v5.2
			C425.6,173.1,424.7,174,423.6,174z"/>
	</g>
	<g>
		<path class="st1" d="M394.6,174h-2.7c-1.1,0-2-0.9-2-2v-5.2c0-1.1,0.9-2,2-2h2.7c1.1,0,2,0.9,2,2v5.2
			C396.6,173.1,395.7,174,394.6,174z"/>
	</g>
	<g>
		<path class="st1" d="M365.6,174h-2.7c-1.1,0-2-0.9-2-2v-5.2c0-1.1,0.9-2,2-2h2.7c1.1,0,2,0.9,2,2v5.2
			C367.6,173.1,366.7,174,365.6,174z"/>
	</g>
	<g>
		<path class="st1" d="M336.6,174h-2.7c-1.1,0-2-0.9-2-2v-5.2c0-1.1,0.9-2,2-2h2.7c1.1,0,2,0.9,2,2v5.2
			C338.6,173.1,337.7,174,336.6,174z"/>
	</g>
	<g>
		<path class="st1" d="M307.6,174h-2.7c-1.1,0-2-0.9-2-2v-5.2c0-1.1,0.9-2,2-2h2.7c1.1,0,2,0.9,2,2v5.2
			C309.6,173.1,308.7,174,307.6,174z"/>
	</g>
	<g>
		<path class="st1" d="M278.6,174h-2.7c-1.1,0-2-0.9-2-2v-5.2c0-1.1,0.9-2,2-2h2.7c1.1,0,2,0.9,2,2v5.2
			C280.6,173.1,279.7,174,278.6,174z"/>
	</g>
	<g>
		<path class="st1" d="M249.6,174h-2.7c-1.1,0-2-0.9-2-2v-5.2c0-1.1,0.9-2,2-2h2.7c1.1,0,2,0.9,2,2v5.2
			C251.6,173.1,250.7,174,249.6,174z"/>
	</g>
	<g>
		<path class="st1" d="M220.6,174h-2.7c-1.1,0-2-0.9-2-2v-5.2c0-1.1,0.9-2,2-2h2.7c1.1,0,2,0.9,2,2v5.2
			C222.6,173.1,221.7,174,220.6,174z"/>
	</g>
	<g>
		<path class="st1" d="M191.6,174h-2.7c-1.1,0-2-0.9-2-2v-5.2c0-1.1,0.9-2,2-2h2.7c1.1,0,2,0.9,2,2v5.2
			C193.6,173.1,192.7,174,191.6,174z"/>
	</g>
	<g>
		<path class="st1" d="M162.6,174h-2.7c-1.1,0-2-0.9-2-2v-5.2c0-1.1,0.9-2,2-2h2.7c1.1,0,2,0.9,2,2v5.2
			C164.6,173.1,163.7,174,162.6,174z"/>
	</g>
	<g>
		<path class="st1" d="M133.6,174h-2.7c-1.1,0-2-0.9-2-2v-5.2c0-1.1,0.9-2,2-2h2.7c1.1,0,2,0.9,2,2v5.2
			C135.6,173.1,134.7,174,133.6,174z"/>
	</g>
</g>
</svg>
